<svg version="1.2" xmlns="http://www.w3.org/2000/svg" viewBox="0 0 1080 1080" width="1080" height="1080">
	<title>Proyek Baru</title>
	<style>
		.s0 { fill: none;stroke: #a5d6a7;stroke-linecap: round;stroke-linejoin: round;stroke-width: 20 } 
		.s1 { fill: #a5d6a7;stroke: #a5d6a7;stroke-linecap: round;stroke-linejoin: round;stroke-width: 0 } 
	</style>
	<g id="Folder 1">
		<path id="Bentuk 1" class="s0" d="m321.3 210.6c-142.4 6.4-82.1-76.1-150.9 64.1-68.8 140.3-114.1 163.4-75.4 233.9 38.6 70.5 31.1-19.6 116.9 75.4 85.8 95 68.8 138.9 109.4 166 40.5 27.1 48.1 20 71.6-34 23.6-54 13.2-77.3 2.9-195.4-10.4-118.1 24.5 186 95.2 182.9 70.7-3 51.9-37.2 98.1-93.1 46.2-55.9 119.7-112 113.1-86.7-6.6 25.2-44.3-8.3 3.8 90.5 48.1 98.8 56.1 119.9 124.4 211.2 33 44.1 61.3 85.6 89.6 110.1 25.2 21.8-26.9 37-47.1 33.9-124.5-18.8-246.4-253.6-311.2-309.2"/>
		<path id="Bentuk 9" class="s0" d="m196.8 410.5c-25.5 95-15.1 139.6-15.1 139.6"/>
		<path id="Bentuk 2" class="s0" d="m678.6 809.1c-97.7 81.3-162.2 120-90.9 179.8 27.8 23.2 78.1 33.9 124.9 39 100.6 11 114.1 10.6 158.4-13.2 44.3-23.8 50.1-42.1 72.6-98.8 27.3-69 33-101.1 37.7-177.2 8.9-144.3 8.5-195.5-34.9-282.2-50.4-100.9-41.5-86.3-134.8-196.9-93.4-110.5-102.8-119.9-162.2-154.6-119.9-70-158.4-59.6-192.4-56.6-106.1 9.6-147.1 83-195.1 149.7"/>
		<path id="Bentuk 3" class="s0" d="m792.7 219.9c51.9-23.8 82.7-63.5 150 38.6 58.4 88.6 69.7 94.3 42.4 112.3-23.7 15.5-10.4 18.1-56.6 33.9"/>
		<path id="Bentuk 5" class="s1" d="m667.3 349c31.1 44.1 45.3 25 4.7 76.6-40.5 51.6-38.6 8.7-64.1-26.4-25.4-35.1-31.1-44.9-3.8-60.3 25.5-14.4 32.1-34 63.2 10.1z"/>
		<path id="Bentuk 6" class="s0" d="m871.9 633c50 21.5 106.6 29 106.6 29"/>
		<path id="Bentuk 7" class="s0" d="m853.1 719.8c51.8 13.9 129.2 10.1 129.2 10.1"/>
		<path id="Bentuk 8" class="s0" d="m868.2 806.5c61.3 10.2 106.5 4.5 106.5 4.5"/>
	</g>
</svg>